<svg width="238" height="57" viewBox="0 0 238 57" fill="none" xmlns="http://www.w3.org/2000/svg">
    <g clip-path="url(#clip0)">
        <path d="M67.194 20.2822V44.9606H56.9354V43.8615C55.7885 44.2615 54.6026 44.5461 53.3962 44.7108C52.21 44.9075 51.009 45.0078 49.8057 45.0105C46.7984 45.0357 43.8163 44.4752 41.0346 43.362C38.1899 42.2291 35.6211 40.5272 33.4945 38.3664C31.2734 36.3165 29.5251 33.8304 28.3652 31.0728C27.2898 28.433 26.733 25.62 26.7238 22.78C26.7374 19.9243 27.2939 17.0957 28.3652 14.4373C29.5251 11.6797 31.2734 9.19356 33.4945 7.14374C35.6501 5.0908 38.2168 3.49229 41.0346 2.44786C46.505 0.252324 52.6448 0.252324 58.1152 2.44786C60.9665 3.56858 63.5377 5.27213 65.6552 7.44348L58.269 14.4873C57.1216 13.3527 55.7406 12.4675 54.2169 11.8896C52.7514 11.3046 51.1842 10.9993 49.6005 10.9904C48.0157 10.989 46.4465 11.2947 44.9841 11.8896C43.4449 12.4666 42.047 13.3516 40.8807 14.4873C38.605 16.7416 37.3176 19.7687 37.2902 22.9299C37.2905 24.5483 37.6218 26.1505 38.2647 27.6429C38.9076 29.1353 39.8492 30.488 41.0346 31.6223C42.0896 32.6424 43.3228 33.4713 44.6764 34.0701C45.9689 34.6476 47.3603 34.9864 48.7798 35.0692C50.192 35.1789 51.6131 35.0607 52.9858 34.7196C54.3753 34.326 55.6913 33.7189 56.8841 32.9211V30.4233H47.6514V20.4321L67.194 20.2822Z" fill="white"/>
        <path d="M100.432 11.0903H82.0689V17.7344H97.1491V27.7257H82.0689V34.8194H100.688V44.8107H71.4513V0.999115H100.432V11.0903Z" fill="white"/>
        <path d="M119.205 45.7598C115.124 45.7598 111.21 44.1809 108.324 41.3703C105.438 38.5597 103.817 34.7478 103.817 30.773H114.076C114.012 31.7623 114.282 32.7447 114.845 33.5705C115.255 34.0853 115.738 34.5396 116.281 34.9194C116.99 35.4056 117.826 35.6831 118.692 35.7187C119.557 35.7274 120.414 35.5571 121.206 35.2191C121.719 35.0026 122.188 34.698 122.59 34.3199C122.91 34.0071 123.186 33.6543 123.411 33.2708C123.56 32.9531 123.664 32.6169 123.719 32.2717C123.741 32.0224 123.741 31.7716 123.719 31.5223C123.741 31.2563 123.741 30.989 123.719 30.723C123.657 30.3794 123.554 30.044 123.411 29.7239C123.214 29.3232 122.935 28.9662 122.59 28.6748C122.177 28.2963 121.711 27.9767 121.206 27.7257L119.769 27.1762L118.333 26.6266L115.153 25.5776C113.978 25.1594 112.859 24.6059 111.819 23.929C110.383 23.0884 109.143 21.9655 108.177 20.6319C107.204 19.3606 106.49 17.9191 106.074 16.3856C105.605 14.8479 105.448 13.2359 105.612 11.6398C105.772 10.0206 106.242 8.4448 106.997 6.99386C107.734 5.68373 108.668 4.48823 109.767 3.44697C110.853 2.46637 112.102 1.67244 113.46 1.09903C114.886 0.48166 116.416 0.126002 117.974 0.0499495C119.576 -0.0906708 121.191 0.0446125 122.744 0.449599C124.232 0.788491 125.653 1.36224 126.95 2.14811C128.193 2.921 129.302 3.88228 130.233 4.99561C131.17 6.08588 131.884 7.34071 132.336 8.69237C132.853 10.0512 133.114 11.4897 133.106 12.9386H122.847C122.887 12.563 122.823 12.1838 122.66 11.8408C122.498 11.4979 122.243 11.2041 121.924 10.9904C121.454 10.6756 120.934 10.4392 120.385 10.291H119.769H118.743C118.32 10.3518 117.917 10.5055 117.564 10.7406C117.112 10.9704 116.752 11.3393 116.538 11.7896C116.28 12.4321 116.28 13.1454 116.538 13.7879C116.725 14.4665 117.164 15.0537 117.769 15.4365C118.377 15.7682 119.012 16.0521 119.667 16.2857L121.872 17.035L124.027 17.6845L126.181 18.5337C128.689 19.7251 130.794 21.5905 132.249 23.9098C133.703 26.2291 134.445 28.9053 134.388 31.6223C134.414 34.3366 133.61 36.997 132.08 39.2655C130.567 41.6048 128.37 43.4492 125.771 44.5609C124.726 44.9999 123.645 45.3509 122.539 45.61C121.435 45.7562 120.319 45.8064 119.205 45.7598Z" fill="white"/>
        <path d="M164.753 0.749329V10.7406H156.085V44.9605H145.826V10.8904H137.055V0.899197L164.753 0.749329Z" fill="white"/>
        <path d="M176.346 6.64417H169.934V1.04907H176.346V6.64417ZM175.935 44.9606H170.293V12.2393H175.935V44.9606Z" fill="white"/>
        <path d="M206.301 44.9606H181.629V40.8642L199.171 16.6354H182.347V12.2393H205.993V16.1858L188.348 40.3646H206.301V44.9606Z" fill="white"/>
        <path d="M238 12.2393L219.945 57.1998H213.892L219.893 43.5618L207.686 12.2393H213.79L222.971 36.6179L232.101 12.3891L238 12.2393Z" fill="white"/>
        <path d="M20.5172 26.6266H0V46.6091H20.5172V26.6266Z" fill="white"/>
        <path d="M20.5172 1.64856H0V21.631H20.5172V1.64856Z" fill="white"/>
    </g>
    <defs>
    <clipPath id="clip0">
        <rect width="238" height="57" fill="white"/>
    </clipPath>
    </defs>
</svg>
